<svg xmlns="http://www.w3.org/2000/svg" xmlns:xlink="http://www.w3.org/1999/xlink" width="371.89" height="104.21" viewBox="0 0 371.89 104.21">
  <defs>
    <clipPath id="clip-zylo-logo_1">
      <rect width="371.89" height="104.21"/>
    </clipPath>
  </defs>
  <g id="zylo-logo_1" data-name="zylo-logo – 1" clip-path="url(#clip-zylo-logo_1)">
    <g id="zylo-logo" transform="translate(0 0)">
      <path id="Path_71" data-name="Path 71" d="M14.62,0H73.242c8.092,0,14.622,6.845,14.622,15.324S81.334,30.65,73.242,30.65H14.62C6.53,30.65,0,23.805,0,15.324,0,6.994,6.53,0,14.62,0Zm0,73.56H73.242c8.092,0,14.622,6.845,14.622,15.326s-6.53,15.324-14.622,15.324H14.62C6.53,104.21,0,97.369,0,88.886S6.53,73.56,14.62,73.56Z" transform="translate(0.001 0)" fill="#f48237"/>
      <path id="Path_72" data-name="Path 72" d="M82.341,3.19a14.43,14.43,0,0,1,2.266,20.476l-58.533,73a14.549,14.549,0,0,1-20.548,2.26A14.425,14.425,0,0,1,3.258,78.445L61.789,5.594A14.571,14.571,0,0,1,82.341,3.19Z" transform="translate(0 0)" fill="#eb5b00"/>
      <path id="Path_73" data-name="Path 73" d="M98.494,64.14a14.694,14.694,0,0,1-20.821-2.325L48.09,24.348a15.087,15.087,0,0,1,2.3-21.055A14.694,14.694,0,0,1,71.211,5.616l29.58,37.467a14.985,14.985,0,0,1-2.3,21.055Z" transform="translate(53.246 0)" fill="#f48237"/>
      <path id="Path_74" data-name="Path 74" d="M74.172,16.813A15.129,15.129,0,0,1,89.5,31.783V69.276a15.329,15.329,0,0,1-30.65,0V31.78A15.129,15.129,0,0,1,74.172,16.813Z" transform="translate(69.885 19.967)" fill="#f8b231"/>
      <path id="Path_75" data-name="Path 75" d="M112.522,3.282a14.948,14.948,0,0,1,2.29,21L85.182,61.786A14.549,14.549,0,0,1,64.426,64.1a14.951,14.951,0,0,1-2.29-21L91.766,5.6a14.674,14.674,0,0,1,20.756-2.319Z" transform="translate(69.885 0)" fill="#fec764"/>
      <path id="Path_76" data-name="Path 76" d="M106.863,0c8.481,0,15.324,6.51,15.324,14.576V87.591c0,8.066-6.843,14.574-15.324,14.574S91.539,95.656,91.539,87.591V14.716C91.537,6.65,98.38,0,106.861,0Z" transform="translate(108.71 0)" fill="#c8db5c"/>
      <path id="Path_77" data-name="Path 77" d="M106.221,33.626h44.2c8.125,0,14.683,6.845,14.683,15.326s-6.558,15.324-14.683,15.324H106.223c-8.127,0-14.685-6.843-14.685-15.324S98.1,33.626,106.223,33.626Z" transform="translate(108.709 39.934)" fill="#81cf4e"/>
      <path id="Path_78" data-name="Path 78" d="M171.255.934A14.569,14.569,0,0,0,156.633,15.49V73.85h14.622A14.566,14.566,0,0,1,185.874,88.4V15.63A14.688,14.688,0,0,0,171.255.934Z" transform="translate(186.015 1.109)" fill="#75c4b8"/>
      <path id="Path_79" data-name="Path 79" d="M188.458,15.553A14.567,14.567,0,0,1,203.08,1H144.457a14.555,14.555,0,1,0,0,29.11h44Z" transform="translate(154.19 1.187)" fill="#00aca0"/>
      <path id="Path_80" data-name="Path 80" d="M144.457,22.208A14.569,14.569,0,0,1,129.835,7.652V80.568a14.621,14.621,0,0,0,29.241,0V22.208Z" transform="translate(154.19 9.088)" fill="#75c4b8"/>
      <path id="Path_81" data-name="Path 81" d="M195.142,34.33h-44V48.886a14.566,14.566,0,0,1-14.62,14.554h58.623a14.555,14.555,0,1,0,0-29.11Z" transform="translate(162.128 40.77)" fill="#00aca0"/>
    </g>
  </g>
</svg>
